<?xml version="1.0" encoding="UTF-8" standalone="no"?>
<!-- Created with Inkscape (http://www.inkscape.org/) -->

<svg
   width="200mm"
   height="200mm"
   viewBox="0 0 200 200"
   version="1.1"
   id="svg1"
   inkscape:version="1.3.2 (091e20e, 2023-11-25)"
   sodipodi:docname="aapkakaam_aa.svg"
   xmlns:inkscape="http://www.inkscape.org/namespaces/inkscape"
   xmlns:sodipodi="http://sodipodi.sourceforge.net/DTD/sodipodi-0.dtd"
   xmlns="http://www.w3.org/2000/svg"
   xmlns:svg="http://www.w3.org/2000/svg">
  <sodipodi:namedview
     id="namedview1"
     pagecolor="#ffffff"
     bordercolor="#000000"
     borderopacity="0.25"
     inkscape:showpageshadow="2"
     inkscape:pageopacity="0.0"
     inkscape:pagecheckerboard="0"
     inkscape:deskcolor="#d1d1d1"
     inkscape:document-units="mm"
     inkscape:zoom="0.21928947"
     inkscape:cx="-380.77523"
     inkscape:cy="414.9766"
     inkscape:window-width="1312"
     inkscape:window-height="449"
     inkscape:window-x="0"
     inkscape:window-y="25"
     inkscape:window-maximized="0"
     inkscape:current-layer="layer1" />
  <defs
     id="defs1">
    <clipPath
       clipPathUnits="userSpaceOnUse"
       id="clipPath12">
      <path
         d="M 0,0 H 650 V 721.875 H 0 Z"
         transform="matrix(0.1559463,0,0,0.1559463,-24.206637,-71.835958)"
         clip-rule="evenodd"
         id="path12" />
    </clipPath>
    <clipPath
       clipPathUnits="userSpaceOnUse"
       id="clipPath10">
      <path
         d="M 0,0 H 650 V 753.125 H 0 Z"
         transform="matrix(0.31999999,0,0,0.31999999,0,10.279996)"
         id="path10" />
    </clipPath>
    <clipPath
       clipPathUnits="userSpaceOnUse"
       id="clipPath6">
      <path
         d="M 0,0 H 650 V 721.875 H 0 Z"
         transform="matrix(0.31999999,0,0,0.31999999,0,10.279996)"
         id="path6" />
    </clipPath>
    <clipPath
       clipPathUnits="userSpaceOnUse"
       id="clipPath5">
      <path
         d="M 0,0 H 650 V 721.875 H 0 Z"
         transform="matrix(0.31999999,0,0,0.31999999,0,10.279996)"
         id="path5" />
    </clipPath>
    <clipPath
       clipPathUnits="userSpaceOnUse"
       id="clipPath4">
      <path
         d="M 98.030128,118.75 H 566.78016 V 587.5 H 98.030128 Z"
         transform="matrix(0.31999999,0,0,0.31999999,0,10.279996)"
         id="path4" />
    </clipPath>
    <clipPath
       clipPathUnits="userSpaceOnUse"
       id="clipPath3">
      <path
         d="m 169.90512,118.75 h 325 c 19.06247,0 37.34415,7.57253 50.82333,21.0517 13.47919,13.47918 21.0517,31.76086 21.0517,50.8233 v 325 c 0,19.06244 -7.57251,37.34412 -21.0517,50.8233 C 532.24927,579.92749 513.96759,587.5 494.90512,587.5 h -325 C 150.8427,587.5 132.561,579.92749 119.08183,566.4483 105.60265,552.96912 98.030128,534.68744 98.030128,515.625 v -325 c 0,-19.06244 7.572522,-37.34412 21.051702,-50.8233 C 132.561,126.32253 150.8427,118.75 169.90512,118.75 Z"
         transform="matrix(0.54613333,0,0,0.54613333,-53.537521,-64.853333)"
         id="path3" />
    </clipPath>
  </defs>
  <g
     inkscape:label="Layer 1"
     inkscape:groupmode="layer"
     id="layer1">
    <g
       id="g10"
       clip-path="url(#clipPath10)"
       transform="matrix(1.3055133,0,0,1.3055133,-38.513916,-60.448154)">
      <g
         clip-path="url(#clipPath6)"
         id="g9">
        <g
           clip-path="url(#clipPath5)"
           id="g8">
          <g
             clip-path="url(#clipPath4)"
             id="g7">
            <path
               d="M 0,0 H 256 V 256 H 0 Z"
               style="fill:#1161e4;fill-opacity:1;fill-rule:nonzero;stroke:none"
               transform="matrix(0.58593748,0,0,0.58593748,31.36964,48.279994)"
               clip-path="url(#clipPath3)"
               id="path7" />
          </g>
        </g>
      </g>
    </g>
    <g
       id="g11"
       transform="matrix(1.3055133,0,0,1.3055133,-38.513916,-60.448154)" />
    <path
       id="path11"
       d="m 53.857892,-33.961109 c 0.369306,0 0.654852,0.129448 0.852831,0.388343 0.201786,0.255088 0.304583,0.61678 0.304583,1.088883 v 1.972173 c 0,0.456874 -0.102797,0.822373 -0.304583,1.096497 -0.197979,0.270317 -0.483525,0.403572 -0.852831,0.403572 h -4.553511 v 27.4809683 c 0,1.02035181 -0.807144,1.53052772351 -2.421431,1.53052772351 h -1.157414 c -0.791915,0 -1.404888,-0.13325490351 -1.835111,-0.40357199351 C 43.464009,-0.67784134 43.250802,-1.0528587 43.250802,-1.5306727 V -29.011641 h -7.55365 v 27.4809683 c 0,1.02035181 -0.807144,1.53052772351 -2.421432,1.53052772351 h -1.157414 c -0.791914,0 -1.404887,-0.13325490351 -1.83511,-0.40357199351 C 29.85678,-0.67784134 29.643572,-1.0528587 29.643572,-1.5306727 V -11.711347 c -1.284958,0.316004 -2.524228,0.472103 -3.715908,0.472103 -0.578707,0 -1.104112,-0.03427 -1.576215,-0.106604 -0.02094,1.8427249 -0.544441,3.4874711 -1.5686,4.9342386 -1.026063,1.4467675 -2.417625,2.5718196 -4.172782,3.3732527 -1.757062,0.7976257 -3.714005,1.1954868 -5.870831,1.1954868 -1.787519,0 -3.5065073,-0.3064863 -5.1550608,-0.9213625 -1.6504571,-0.6129725 -3.318047,-1.560986 -5.0027697,-2.840233 -0.4226084,-0.3502701 -0.632009,-0.7195765 -0.632009,-1.1117266 0,-0.3654992 0.148484,-0.6967328 0.4492594,-0.9975082 l 1.5000695,-1.7132773 c 0.3293299,-0.35027 0.6796,-0.525405 1.0508101,-0.525405 0.35027,0 0.70054,0.1503876 1.05081,0.4492594 1.1764505,0.9651462 2.3034062,1.6580717 3.3808673,2.0787764 1.0812682,0.4226084 2.2006092,0.632009 3.3580232,0.632009 1.720892,0 3.080092,-0.4207048 4.081408,-1.2640179 0.999411,-0.8414096 1.500069,-1.9912094 1.500069,-3.4493984 0,-2.172055 -1.157414,-3.854874 -3.472242,-5.048457 -0.614876,0.258895 -1.300187,0.502561 -2.055933,0.730998 -0.121833,0.03617 -0.422608,0.125641 -0.898519,0.26651 -0.472103,0.142773 -0.919458,0.255088 -1.340163,0.335041 -0.422608,0.07615 -0.8147586,0.114218 -1.1802578,0.114218 -0.7214801,0 -1.1954868,-0.41309 -1.4239238,-1.241174 L 7.447113,-18.640602 c -0.036169,-0.171328 -0.053302,-0.312197 -0.053302,-0.418801 0,-0.734806 0.4378375,-1.182162 1.3173199,-1.340164 2.6498691,-0.405475 4.6601141,-1.043195 6.0307361,-1.911256 1.370622,-0.86806 2.055933,-2.029282 2.055933,-3.487471 0,-1.106016 -0.388343,-1.9341 -1.165029,-2.482349 -0.772878,-0.552056 -1.869376,-0.829987 -3.289492,-0.829987 -1.543853,0 -3.3941929,0.45497 -5.5510187,1.363007 -0.2798353,0.106604 -0.5444415,0.159906 -0.7919149,0.159906 -0.5292123,0 -0.9403988,-0.306486 -1.2335596,-0.921362 l -1.0051227,-2.398589 c -0.1370622,-0.222726 -0.2055933,-0.466392 -0.2055933,-0.730998 0,-0.527309 0.3141008,-0.940399 0.9442062,-1.241174 2.2634297,-0.856639 4.6410778,-1.286862 7.134848,-1.286862 3.506508,0 6.205871,0.751938 8.094284,2.253912 1.888412,1.498165 2.832618,3.660702 2.832618,6.48761 0,1.102208 -0.264606,2.158729 -0.791915,3.167659 -0.529212,1.010834 -1.264018,1.945522 -2.208224,2.80216 1.19168,0.73671 2.181573,1.621903 2.969681,2.657484 0.963243,0.386439 2.139693,0.578707 3.525544,0.578707 0.685311,0 1.309705,-0.04759 1.873183,-0.144677 0.563478,-0.09518 1.13457,-0.283643 1.713277,-0.563478 v -12.084316 h -3.898657 c -0.40738,0 -0.706251,-0.129447 -0.898519,-0.388343 -0.194171,-0.262702 -0.289354,-0.633912 -0.289354,-1.111726 v -1.972173 c 0,-0.984182 0.395958,-1.477226 1.187873,-1.477226 z m 0,0"
       style="fill:#ffffff;fill-opacity:1;fill-rule:nonzero;stroke:none"
       aria-label="आ"
       transform="matrix(2.6788979,0,0,2.6788979,26.333179,145.41372)"
       clip-path="url(#clipPath12)" />
  </g>
</svg>
